<?xml version="1.0" encoding="utf-8"?>
<!-- Generator: Adobe Illustrator 18.1.0, SVG Export Plug-In . SVG Version: 6.00 Build 0)  -->
<!DOCTYPE svg PUBLIC "-//W3C//DTD SVG 1.1//EN" "http://www.w3.org/Graphics/SVG/1.1/DTD/svg11.dtd">
<svg version="1.1" id="Capa_1" xmlns="http://www.w3.org/2000/svg" xmlns:xlink="http://www.w3.org/1999/xlink" x="0px" y="0px"
	 viewBox="0 0 95 56" enable-background="new 0 0 95 56" xml:space="preserve">
<g>
	<path d="M1,32c0.6,0,0.9,0.3,0.9,1v2.5c0.6-1.1,1.4-1.9,2.5-2.6C5.4,32.3,6.6,32,7.8,32c2.1,0,3.8,0.8,5.1,2.3c1.3,1.5,2,3.4,2,5.6
		c0,2.3-0.7,4.3-2.2,5.9c-1.5,1.6-3.3,2.4-5.4,2.4c-1.1,0-2.2-0.3-3.2-0.8c-1-0.5-1.7-1.2-2.3-2.1c0,0.3,0,1,0,2c0,1,0,1.8,0,2.5
		c0,0.5,0,1.3,0,2.3c0,1.1,0,1.9,0,2.5c0,0.3-0.1,0.6-0.3,0.8c-0.2,0.2-0.4,0.3-0.7,0.2c-0.6,0-0.9-0.4-0.9-1l0-13.9l0-7.7
		C0,32.4,0.3,32,1,32 M11.4,35.5c-1-1.2-2.3-1.7-3.8-1.7c-1.6,0-3,0.6-4.1,1.9c-1.1,1.2-1.7,2.8-1.7,4.7c0,1.8,0.5,3.3,1.5,4.4
		c1,1.1,2.3,1.6,3.8,1.6c1.6,0,3-0.6,4.2-1.9c1.1-1.2,1.7-2.8,1.7-4.7C13,38.2,12.5,36.7,11.4,35.5"/>
	<path d="M33.1,41.9c0,1.6,0.1,3.4,0.2,5.4c0,0.2-0.1,0.4-0.3,0.6c-0.2,0.2-0.4,0.2-0.7,0.2c-0.2,0-0.4,0-0.5-0.1
		c-0.1-0.1-0.2-0.3-0.3-0.6c-0.1-0.3-0.1-0.6-0.1-0.8c0-0.2,0-0.6,0-1.2v-0.5c-1.2,2.2-3.2,3.3-6,3.3c-2.1,0-3.8-0.7-5.1-2.2
		c-1.3-1.5-2-3.2-2-5.3c0-2.4,0.7-4.4,2.2-6.1c1.5-1.7,3.3-2.5,5.4-2.5c2.4,0,4.2,1,5.5,3v-1.6c0-0.9,0.3-1.3,1-1.3
		c0.3,0,0.5,0.1,0.7,0.3c0.1,0.2,0.2,0.4,0.2,0.5c0,0.2,0,0.5,0,0.9l0,2.7L33.1,41.9z M21.8,44.8c1.1,1.1,2.3,1.6,3.8,1.6
		c1.7,0,3.1-0.6,4.2-1.7c1.1-1.2,1.7-2.7,1.7-4.5c0-2-0.6-3.5-1.7-4.6c-1.1-1.1-2.4-1.7-4-1.7c-1.6,0-2.9,0.6-4,1.9
		c-1.1,1.3-1.6,2.9-1.6,4.8C20.2,42.3,20.7,43.7,21.8,44.8"/>
	<path d="M48.9,52.3c1.1-1.2,1.6-2.8,1.6-4.8v-2.8c-1.3,2.3-3.3,3.4-6,3.4c-2,0-3.7-0.8-5.1-2.3c-1.4-1.5-2-3.3-2-5.3
		c0-2.4,0.7-4.5,2.2-6.1c1.5-1.6,3.3-2.4,5.5-2.4c2.2,0,4,1,5.4,3v-1.9c0-0.6,0.3-1,0.9-1c0.2,0,0.5,0.1,0.6,0.2
		c0.2,0.2,0.3,0.4,0.3,0.7c0,5.4-0.1,9.3-0.1,11.4l0,3.1c0,2.5-0.7,4.5-2.1,6c-1.5,1.5-3.3,2.3-5.6,2.3c-1.7,0-3.2-0.3-4.6-1
		c-0.7-0.3-1.1-0.7-1.1-1.1c0-0.3,0.1-0.5,0.3-0.7c0.2-0.2,0.4-0.3,0.6-0.3c0.1,0,0.3,0,0.4,0.1c0.1,0.1,0.3,0.1,0.5,0.3
		c0.2,0.1,0.4,0.2,0.6,0.3c1.1,0.4,2.2,0.7,3.4,0.7C46.4,54.1,47.8,53.5,48.9,52.3 M40.9,44.7c1,1.1,2.3,1.6,3.8,1.6
		c1.6,0,3-0.6,4.1-1.7c1.1-1.1,1.7-2.6,1.7-4.5c0-2.1-0.5-3.6-1.6-4.7c-1-1.1-2.4-1.7-4-1.7c-1.6,0-3,0.6-4.1,1.9
		c-1.1,1.3-1.6,2.9-1.6,4.8C39.3,42.2,39.8,43.6,40.9,44.7"/>
	<path d="M71.4,41.9c0,1.6,0.1,3.4,0.2,5.4c0,0.2-0.1,0.4-0.3,0.6c-0.2,0.2-0.4,0.2-0.7,0.2c-0.2,0-0.4,0-0.5-0.1
		c-0.1-0.1-0.2-0.3-0.3-0.6c-0.1-0.3-0.1-0.6-0.1-0.8c0-0.2,0-0.6,0-1.2v-0.5c-1.2,2.2-3.2,3.3-6,3.3c-2.1,0-3.8-0.7-5.1-2.2
		c-1.3-1.5-2-3.2-2-5.3c0-2.4,0.7-4.4,2.2-6.1c1.5-1.7,3.3-2.5,5.4-2.5c2.4,0,4.2,1,5.5,3v-1.6c0-0.9,0.3-1.3,1-1.3
		c0.3,0,0.5,0.1,0.7,0.3c0.1,0.2,0.2,0.4,0.2,0.5c0,0.2,0,0.5,0,0.9l0,2.7L71.4,41.9z M60.1,44.8c1.1,1.1,2.3,1.6,3.8,1.6
		c1.7,0,3.1-0.6,4.2-1.7c1.1-1.2,1.7-2.7,1.7-4.5c0-2-0.6-3.5-1.7-4.6c-1.1-1.1-2.4-1.7-4-1.7c-1.6,0-2.9,0.6-4,1.9
		c-1.1,1.3-1.6,2.9-1.6,4.8C58.5,42.3,59,43.7,60.1,44.8"/>
	<path fill="#60BED4" d="M95,12.3c0-6.7-5.7-12.2-12.8-12.2H44.6c-7,0-12.8,5.5-12.8,12.2c0,6.7,5.8,12.2,12.8,12.2h32.3l-1.1,4.9
		l12-6.1l-0.1,0C92,21.3,95,17.1,95,12.3"/>
	<path fill="#FFFFFF" d="M37.9,12.6c-0.1-0.2-0.2-0.4-0.2-0.7c0-0.5,0.3-0.7,1-0.7H41V8.4c0-0.3,0.1-0.5,0.2-0.6
		c0.2-0.1,0.4-0.2,0.6-0.2c0.5,0,0.8,0.3,0.8,0.9v2.7c0.3,0,0.7,0,1.3,0c0.6,0,1,0,1.1,0c0.5,0,0.8,0.3,0.8,0.8
		c0,0.5-0.3,0.8-0.9,0.8h-0.6h-1h-0.8v1c0,0.3,0,0.7,0,1.1c0,0.4,0,0.6,0,0.7c0,0.5-0.3,0.8-0.9,0.7c-0.5,0-0.7-0.3-0.7-0.9v-2.7
		c-0.3,0-0.8,0-1.4,0c-0.6,0-1,0-1.1,0C38.2,12.9,38,12.8,37.9,12.6"/>
	<path fill="#FFFFFF" d="M46.3,9.6c0-0.3,0.1-0.5,0.2-0.6c0.2-0.2,0.4-0.2,0.6-0.2H48l0-1.3c0-0.8,0.4-1.2,1-1.2
		c0.5,0,0.8,0.3,0.8,0.9c0,0.1,0,0.4,0,0.7c0,0.4,0,0.6,0,0.9h1.5c0.3,0,0.5,0.1,0.6,0.2c0.1,0.1,0.2,0.4,0.2,0.6
		c0,0.6-0.2,0.8-0.7,0.8h-1.6v3.2c0,0.6,0.1,1,0.2,1.3c0.1,0.3,0.4,0.4,0.7,0.4c0.2,0,0.3,0,0.5-0.1c0.2-0.1,0.3-0.1,0.4-0.1
		c0.2,0,0.4,0.1,0.5,0.2c0.1,0.2,0.2,0.4,0.2,0.6c0,0.4-0.1,0.7-0.4,0.8c-0.3,0.2-0.8,0.3-1.3,0.3C48.9,17,48,16,48,13.8
		c0-0.3,0-0.8,0-1.6c0-0.8,0-1.4,0-1.8h-1C46.5,10.4,46.3,10.1,46.3,9.6"/>
	<path fill="#FFFFFF" d="M61.6,13.9c0,0.9,0,1.6,0.1,2.3c0,0.6-0.3,0.8-1,0.8c-0.3,0-0.5-0.1-0.6-0.3c-0.1-0.2-0.2-0.6-0.3-1.1
		c-0.5,1-1.4,1.4-2.6,1.4c-1.1,0-2.1-0.4-2.8-1.2c-0.7-0.8-1.1-1.7-1.1-2.8c0-1.3,0.4-2.4,1.2-3.2c0.8-0.8,1.7-1.3,2.9-1.3
		c1.1,0,1.9,0.4,2.4,1.3c0,0,0-0.1,0-0.3c0-0.2,0-0.3,0.1-0.4c0.1-0.4,0.4-0.6,0.8-0.6c0.6,0,0.9,0.4,0.9,1.1l0,1.4L61.6,13.9z
		 M56,14.7c0.4,0.4,0.9,0.7,1.5,0.7c0.7,0,1.2-0.2,1.7-0.7c0.4-0.5,0.7-1.1,0.7-1.8c0-0.8-0.2-1.4-0.7-1.8c-0.4-0.4-1-0.7-1.6-0.7
		c-0.6,0-1.2,0.2-1.6,0.8c-0.4,0.5-0.6,1.2-0.6,1.9C55.3,13.7,55.6,14.2,56,14.7"/>
	<path fill="#FFFFFF" d="M64.3,8.8c0.2-0.2,0.4-0.2,0.7-0.2c0.4,0,0.7,0.2,0.7,0.6l0.1,1c0.2-0.5,0.6-1,1-1.3
		c0.4-0.3,0.9-0.5,1.4-0.5c0.6,0,0.9,0.3,0.9,0.9c0,0.3-0.1,0.5-0.2,0.7c-0.1,0.2-0.3,0.3-0.6,0.3h-0.3c-0.6,0-1.1,0.3-1.5,0.8
		c-0.4,0.5-0.6,1.2-0.6,2.1c0,0.2,0,0.6,0,1.3c0,0.7,0,1.2,0,1.6c0,0.6-0.3,0.8-1,0.8c-0.3,0-0.6-0.1-0.7-0.2
		c-0.2-0.2-0.2-0.4-0.2-0.9c0-2.8,0.1-4.3,0.1-4.4c0-0.2,0-0.5,0-0.9c0-0.4,0-0.7,0-1C64.1,9.2,64.2,9,64.3,8.8"/>
	<path fill="#FFFFFF" d="M78.2,8.9c0,0.4,0,1,0,1.8c0,0.8,0,1.4,0,1.9c0,0.2,0,0.6,0,1.3c0,0.7,0,1.5,0,2.2c0,0.6-0.3,0.9-0.9,0.9
		c-0.5,0-0.8-0.2-0.9-0.7l-0.1-0.8c-0.6,1-1.5,1.5-2.6,1.5c-1.2,0-2.1-0.4-2.8-1.2c-0.7-0.8-1.1-1.7-1.1-2.8c0-1.3,0.4-2.3,1.2-3.2
		C71.8,9,72.8,8.6,74,8.6c0.5,0,0.9,0.1,1.3,0.3c0.4,0.2,0.7,0.5,0.9,0.9l0-4.8c0-0.7,0.3-1.1,1-1.1c0.3,0,0.6,0.1,0.8,0.2
		c0.2,0.1,0.3,0.4,0.3,0.7L78.2,8.9z M72.4,14.6c0.4,0.5,0.9,0.7,1.5,0.7c0.6,0,1.2-0.2,1.6-0.7c0.4-0.5,0.7-1.1,0.7-1.8
		c0-0.8-0.2-1.4-0.6-1.8c-0.4-0.5-0.9-0.7-1.6-0.7c-0.6,0-1.2,0.2-1.6,0.7c-0.4,0.5-0.7,1.1-0.7,1.9C71.8,13.6,72,14.2,72.4,14.6"/>
	<path fill="#FFFFFF" d="M82.7,14.7c0.4,0.4,0.9,0.6,1.5,0.6c0.6,0,1.2-0.2,1.7-0.5c0.3-0.2,0.5-0.2,0.7-0.2c0.2,0,0.4,0.1,0.6,0.3
		c0.2,0.2,0.2,0.4,0.2,0.6c0,0.3-0.2,0.6-0.5,0.8c-0.7,0.5-1.7,0.7-2.9,0.7c-1.1,0-2-0.4-2.8-1.2c-0.8-0.8-1.2-1.7-1.2-2.8
		c0-1.3,0.4-2.4,1.2-3.2C82,9,83,8.5,84.1,8.5c1,0,1.9,0.3,2.5,1c0.7,0.7,1,1.4,1,2.3c0,0.5-0.1,0.9-0.3,1.1
		c-0.2,0.2-0.5,0.3-1.1,0.3c-0.3,0-0.6,0-1,0c-0.4,0-0.9,0-1.5,0c-0.6,0-1.2,0-1.8,0C82,13.9,82.3,14.3,82.7,14.7 M82.7,10.7
		c-0.4,0.4-0.6,0.8-0.7,1.3c1.7,0,3,0,3.6-0.1c0.1,0,0.2-0.1,0.2-0.2c0-0.5-0.2-0.9-0.5-1.2c-0.3-0.3-0.7-0.5-1.2-0.5
		C83.6,10.1,83.1,10.3,82.7,10.7"/>
</g>
</svg>
